<svg xmlns="http://www.w3.org/2000/svg" width="15" height="15" viewBox="0 0 15 15">
  <g id="double-arrow-top-icon" transform="translate(0.001 0.001)">
    <path id="Path_5" data-name="Path 5" d="M13.295,8.281a1.007,1.007,0,0,0,1.421-.02l.015-.015a1,1,0,0,0-.021-1.388C12.555,4.662,10.364,2.49,8.192.308a.181.181,0,0,0-.02-.024A1.008,1.008,0,0,0,6.748.3L6.716.337Q3.5,3.6.287,6.859A1,1,0,0,0,.269,8.246l.018.019A1.007,1.007,0,0,0,1.7,8.281L7.475,2.409l5.819,5.872Zm-.244,6.437a1.007,1.007,0,0,0,1.419-.022l.015-.015a1,1,0,0,0-.02-1.388c-2.111-2.149-4.186-4.371-6.271-6.549-.006-.009-.013-.017-.021-.026a1.01,1.01,0,0,0-1.425.021Q3.644,10,.55,13.279l-.016.015a1,1,0,0,0-.017,1.386l.018.019a1.007,1.007,0,0,0,1.417.016L7.475,8.849l5.575,5.869Z" transform="translate(0 0)" fill="#fff"/>
  </g>
</svg>
